<svg version="1" xmlns="http://www.w3.org/2000/svg" width="426.667" height="426.667" viewBox="0 0 320.000000 320.000000"><path d="M0 21c0 .5 1 1 2.3 1.1 1.2 0 1.6.3 1 .6-.7.2-1.3 1.8-1.3 3.4 0 1.6-.4 2.9-1 2.9-.5 0-1 1.1-1 2.5S.5 34 1 34c.6 0 1-.9 1-2s.5-2 1-2c.6 0 1-1.2 1-2.6C4 24.5 6.1 22 8.4 22c.9 0 1.6-.5 1.6-1 0-.6-2.2-1-5-1-2.7 0-5 .4-5 1zM32 23.5c0 1.9-.4 3.5-1 3.5-.5 0-1 1.6-1 3.5s.5 3.5 1 3.5c.6 0 1-1.2 1-2.6 0-3 2.1-5.4 4.7-5.3 1 0 1.3.3.6.6-1.5.6-1.8 7.3-.3 7.3.6 0 1-1.4 1-3 0-1.7.5-3 1-3 .6 0 1-1.1 1-2.5 0-2.1-.5-2.5-3-2.5-2 0-3-.5-3-1.5 0-.8-.4-1.5-1-1.5-.5 0-1 1.6-1 3.5zM52 21.5c0 .8-.4 1.5-1 1.5-.5 0-1 1.3-1 3 0 1.6-.4 3-1 3-.5 0-1 1.1-1 2.5 0 2.3.4 2.5 4.6 2.5 3.5 0 5.1-.5 6.5-2.2l1.9-2.1 1.9 2.1c2.1 2.5 7.1 3 7.1.8 0-.9-1.3-1.6-3.2-1.9-2.9-.3-2.7-.4 1-.5 3.5-.2 4.2-.5 4.2-2.3 0-1.1-.6-2.7-1.4-3.5-1.7-1.6-6.6-1.9-6.6-.4 0 .5-.4 1-1 1-.5 0-1-.9-1-1.9 0-2.2-1.9-3.1-6.6-3.1-2.4 0-3.4.5-3.4 1.5zm8 3.6c0 4.1-2.1 5.9-6.7 5.8-2.1 0-3.2-.3-2.5-.6.6-.2 1.2-1.6 1.2-2.9 0-3.4 1.9-5.3 5.3-5.4 2.4 0 2.7.4 2.7 3.1zm8.8 1.6c-1 .2-2.6.2-3.5 0-1-.3-.2-.5 1.7-.5s2.7.2 1.8.5zM9.3 24.5c-1.7 1.9-1.6 6.3.1 8.1 1.9 1.9 6.6 1.8 6.6 0 0-.9-1.3-1.6-3.2-1.9-2.9-.3-2.7-.4 1-.5 3.5-.2 4.2-.5 4.2-2.3 0-4.3-5.9-6.6-8.7-3.4zm5.5 2.2c-1 .2-2.6.2-3.5 0-1-.3-.2-.5 1.7-.5s2.7.2 1.8.5zM21.3 24.5c-2.6 2.9-.7 9.5 2.7 9.5 1.4 0 4-2.5 4-3.9 0-.6-.4-1.1-1-1.1-.5 0-1 .4-1 1 0 .5-.9 1-2 1-1.5 0-2-.7-2-2.5s.5-2.5 2-2.5c1.1 0 2 .4 2 1 0 .5.5 1 1 1 .6 0 1-1.1 1-2.5 0-2.1-.5-2.5-2.7-2.5-1.6.1-3.4.7-4 1.5zM76 25c0 1.1-.4 2-1 2-.5 0-1 1.6-1 3.5s.5 3.5 1 3.5c.6 0 1-1.4 1-3 0-1.7.5-3 1-3 .6 0 1 1.3 1 3 0 1.6.5 3 1 3 .6 0 1-1.4 1-3 0-1.7.5-3 1-3 .6 0 1 1.3 1 3 0 1.6.5 3 1 3 .6 0 1-1.4 1-3 0-1.7.5-3 1-3 .6 0 1-1.1 1-2.5 0-1.8-.5-2.5-1.9-2.5-1.1 0-2.2.6-2.5 1.2-.5 1-.7 1-1.2 0-1-2-4.4-1.5-4.4.8zM89.3 24.5c-1.7 1.9-1.6 6.3.1 8.1 3.3 3.2 8.6.7 8.6-4.1 0-1.5-.6-3.3-1.4-4.1-1.8-1.8-5.7-1.8-7.3.1zm6.7 4c0 2.1-.5 2.5-3 2.5s-3-.4-3-2.5.5-2.5 3-2.5 3 .4 3 2.5zM84 40c0 .5-.7 1-1.5 1-.9 0-3.1 1.6-5 3.5-3.4 3.4-3.5 3.6-3.5 12 0 5-.4 8.5-1 8.5s-1 3.7-1 9-.4 9-1 9-1 3-1 7.1c0 8.3 1.1 9.9 7 9.9 5.6 0 7-1.7 7-8.4 0-3.1.5-5.6 1-5.6.6 0 1-2.3 1-5v-5h10v4.5c0 2.5-.4 4.5-1 4.5-1.6 0-1.2 11.9.4 13.6 1.9 1.8 9.3 1.8 11.2 0 .9-1 1.4-3.7 1.4-8 0-3.7.4-6.6 1-6.6s1-3.7 1-9 .4-9 1-9 1-3.5 1-8.5-.4-8.5-1-8.5c-.5 0-1-.7-1-1.5 0-.9-1.6-3.1-3.5-5l-3.4-3.5h-9.6c-5.7 0-9.5.4-9.5 1zm21.5 4.5c1.4 1.3 2.5 3.1 2.5 4 0 .8.5 1.5 1 1.5.6 0 1 3.2 1 7.5s-.4 7.5-1 7.5-1 3.7-1 9-.4 9-1 9-1 3-1 7v7H96v-5.5c0-3 .5-5.5 1-5.5 1.6 0 1.2-9.9-.4-11.6-1.9-1.8-9.3-1.8-11.2 0-.8.8-1.4 3.4-1.4 6 0 2.5-.4 4.6-1 4.6s-1 2.7-1 6v6H72v-6.5c0-3.7.4-6.5 1-6.5s1-3.7 1-9 .4-9 1-9 1-3.5 1-8.5c0-7.8.2-8.8 2.5-11 1.3-1.4 3.1-2.5 4-2.5.8 0 1.5-.5 1.5-1 0-.6 3.8-1 9.5-1 8.8 0 9.8.2 12 2.5z"/><path d="M85.3 52.5c-1.8 2-1.7 12.3.1 14.1.9.8 3.5 1.4 6.6 1.4 3.1 0 5.7-.6 6.6-1.4 1.9-2 1.9-12.2 0-14.2-1.9-1.9-11.7-1.8-13.3.1zm12.7 7V65H86V54h12v5.5zM117.3 64.5c-3 3.2-3.3 4-3.3 10 0 3.7-.4 6.5-1 6.5s-1 2.7-1 6c0 5.6.3 6.3 3.5 9.5 3.4 3.5 3.5 3.5 12.5 3.5 9.5 0 12-1 12-4.5s-2.6-4.5-11.4-4.5c-8.5 0-8.6 0-8.6-2.5s.1-2.5 8.6-2.5c8.8 0 11.4-1 11.4-4.4 0-.9.5-1.6 1-1.6.6 0 1-2.7 1-6 0-5.6-.3-6.3-3.5-9.5-3.3-3.4-3.7-3.5-10.7-3.4-7 0-7.5.2-10.5 3.4zm20.2 2c2 1.9 2.5 3.4 2.5 7.5 0 2.7-.4 5-1 5-.5 0-1 .9-1 2 0 1.8-.7 2-8.6 2-9.4 0-11.4 1-11.4 5.5s2 5.5 11.4 5.5c7 0 8.6.3 8.6 1.5s-1.7 1.5-9.5 1.5c-8.8 0-9.8-.2-12-2.5-2-1.9-2.5-3.4-2.5-7.5 0-2.7.5-5 1-5 .6 0 1-2.8 1-6.5 0-5.4.4-7 2.3-9 1.9-2.1 3.1-2.4 9.5-2.4 6.5-.1 7.6.2 9.7 2.4z"/><path d="M121.3 70.5c-1.7 1.9-1.6 6.3.1 8.1 1.9 1.9 11.3 1.9 13.2 0 .8-.8 1.4-2.6 1.4-4.1 0-1.5-.6-3.3-1.4-4.1-1.9-1.9-11.7-1.8-13.3.1zm12.7 4c0 2.4-.3 2.5-6 2.5s-6-.1-6-2.5.3-2.5 6-2.5 6 .1 6 2.5zM147.3 62.5c-.8.9-1.3 4.5-1.3 10 0 5-.4 8.5-1 8.5s-1 3.4-1 8.1c0 9.4.9 10.9 7 10.9 3.3 0 4.7-.6 7.5-3.5 1.9-1.9 3.5-4.1 3.5-5 0-.8.5-1.5 1-1.5.6 0 1-.9 1-2s.5-2 1-2c.6 0 1-1.4 1-3 0-1.7.5-3 1-3 .6 0 1-.9 1-2s.5-2 1-2c.6 0 1-.9 1-2s.5-2 1-2c.6 0 1-2.5 1-5.5V61h-3.6c-3.8 0-6.4 1.8-6.4 4.4 0 .9-.4 1.6-1 1.6-.5 0-1 1.3-1 3 0 1.6-.4 3-1 3-.5 0-1 .9-1 2s-.4 2-1 2-1-2.9-1-6.6c0-7.2-1.3-9.4-5.2-9.4-1.3.1-2.9.7-3.5 1.5zm6.7 10c0 5-.4 8.5-1 8.5s-1 2.8-1 6.5.4 6.5 1 6.5 1-.9 1-2 .5-2 1-2c.6 0 1-1.4 1-3 0-1.7.5-3 1-3 .6 0 1-1.4 1-3 0-1.7.5-3 1-3 .6 0 1-.9 1-2s.5-2 1-2c.6 0 1-1.4 1-3 0-1.7.5-3 1-3 .6 0 1-.9 1-2 0-1.6.7-2 3-2 2.8 0 3 .3 3 3.5 0 1.9-.4 3.5-1 3.5-.5 0-1 .9-1 2s-.4 2-1 2c-.5 0-1 .9-1 2s-.4 2-1 2c-.5 0-1 1.3-1 3 0 1.6-.4 3-1 3-.5 0-1 .9-1 2s-.4 2-1 2c-.5 0-1 .7-1 1.5 0 .9-1.1 2.7-2.5 4-1.8 1.9-3.5 2.5-7 2.5H146v-7.5c0-4.3.4-7.5 1-7.5s1-3.7 1-9v-9h6v8.5zM177.3 62.5c-1.7 1.9-1.6 8.3.1 10.1.8.8 2.9 1.4 4.6 1.4 4.1 0 6-2 6-6.5 0-2-.6-4.3-1.4-5.1-1.9-1.8-7.7-1.8-9.3.1zm8.7 5c0 3.4-.1 3.5-4 3.5-3.7 0-4-.2-4-2.8 0-3.7.6-4.2 4.7-4.2 3.1 0 3.3.2 3.3 3.5zM193.3 62.5c-.7.8-1.3 3.5-1.3 6s-.4 4.5-1 4.5-1 2.7-1 6-.4 6-1 6-1 2.7-1 6.1c0 7 1.3 8.9 6 8.9 4.4 0 6-2 6-7.4 0-2.5.5-4.6 1-4.6.6 0 1-3 1-7s.4-7 1-7c1.6 0 1.2-9.9-.4-11.6-1.9-1.8-7.7-1.8-9.3.1zm8.7 6c0 2.5-.4 4.5-1 4.5s-1 3-1 7-.4 7-1 7c-.5 0-1 2.2-1 5v5h-8v-5.5c0-3 .5-5.5 1-5.5.6 0 1-2.6 1-5.9 0-4.2.4-6 1.4-6.4.9-.4 1.2-1.4.9-2.6-.3-1.1-.2-3.2.1-4.6.5-2.1 1.2-2.5 4.1-2.5 3.5 0 3.5 0 3.5 4.5zM209.3 62.5c-1.7 1.9-1.6 8.3.1 10.1.8.8 2.9 1.4 4.6 1.4 4.1 0 6-2 6-6.5 0-2-.6-4.3-1.4-5.1-1.9-1.8-7.7-1.8-9.3.1zm8.7 5c0 3.3-.2 3.5-3.5 3.5s-3.5-.2-3.5-3.5.2-3.5 3.5-3.5 3.5.2 3.5 3.5zM223.3 62.5c-1.7 1.9-1.6 4.3.1 6.1 1 1 3.9 1.4 10 1.4 8.5 0 8.6 0 8.6 2.5s-.1 2.5-8.6 2.5c-8.8 0-11.4 1-11.4 4.4 0 .9-.4 1.6-1 1.6s-1 2.7-1 6c0 5.6.3 6.3 3.5 9.5 3.3 3.4 3.7 3.5 10.8 3.5 7.1 0 7.4-.1 11-3.8 3.5-3.5 3.7-4.2 3.7-9.9 0-3.4.5-6.5 1-6.8.6-.3 1-3 1-5.9 0-4.7-.4-5.5-3.8-8.9l-3.8-3.7H234c-6.9.1-9.8.5-10.7 1.5zm22.2 4c2 1.9 2.5 3.4 2.5 7.5 0 2.7-.4 5-1 5s-1 2.9-1 6.7c0 5.5-.4 7.1-2.2 9-1.9 2-3.1 2.3-9.5 2.3-6.5 0-7.7-.3-9.8-2.5-2-1.9-2.5-3.4-2.5-7.5 0-2.7.4-5 .9-5s1.3-.9 1.6-2c.6-1.8 1.5-2 8.7-2 8.8 0 11.8-1.4 11.8-5.3 0-4.4-2.7-5.7-11.7-5.7-6.7 0-8.3-.3-8.3-1.5s1.7-1.5 9-1.5c8.3 0 9.3.2 11.5 2.5z"/><path d="M227.3 82.5c-1.9 2.1-1.6 6.6.5 8.1 2.7 2.1 11.5 1.8 13.5-.4 2.2-2.4 2.1-5.5-.1-7.5-2.4-2.2-12.1-2.3-13.9-.2zm12.7 4c0 2.4-.3 2.5-6 2.5s-6-.1-6-2.5.3-2.5 6-2.5 6 .1 6 2.5zM175.3 76.5c-.7.8-1.3 3-1.3 5 0 1.9-.4 3.5-1 3.5s-1 2.7-1 6.1c0 7 1.3 8.9 6 8.9 4.4 0 6-2 6-7.4 0-2.5.5-4.6 1-4.6 1.6 0 1.2-9.9-.4-11.6-1.9-1.8-7.7-1.8-9.3.1zm8.7 6c0 2.5-.4 4.5-1 4.5-.5 0-1 2.2-1 5v5h-8v-5.5c0-3 .5-5.5 1-5.5.6 0 1-1.8 1-4v-4h8v4.5zM207.3 76.5c-.7.8-1.3 3-1.3 5 0 1.9-.4 3.5-1 3.5s-1 2.7-1 6.1c0 7 1.3 8.9 6 8.9 4.4 0 6-2 6-7.4 0-2.5.5-4.6 1-4.6 1.6 0 1.2-9.9-.4-11.6-1.9-1.8-7.7-1.8-9.3.1zm8.7 6c0 2.5-.4 4.5-1 4.5-.5 0-1 2.2-1 5v5h-8v-5.4c0-3 .4-5.6 1-5.8.5-.2 1.1-2 1.2-4 .3-3.7.4-3.8 4.1-3.8h3.7v4.5zM90 120c0 .5-.9 1-2 1s-2 .4-2 1c0 .5-.7 1-1.5 1-2.6 0-10.5 8.6-10.5 11.5 0 1.4-.4 2.5-1 2.5s-1 4.2-1 10.5.4 10.5 1 10.5 1 1.6 1 3.6c0 3 .9 4.4 6.1 9.5 3.7 3.6 5.4 5.9 4.4 5.9-2.4 0-4.5 2.5-4.5 5.4 0 2.4-.4 2.6-4 2.6-2.2 0-4 .4-4 1 0 .5-.7 1-1.6 1-2 0-4.4 2.4-4.4 4.4 0 .9-.4 1.6-1 1.6-.5 0-1 .9-1 2s-.4 2-1 2-1 3.2-1 7.5.4 7.5 1 7.5 1 3.3 1 8 .4 8 1 8 1 1.3 1 3c0 1.6.5 3 1 3 .6 0 1 .9 1 2s.5 2 1 2c.6 0 1 .9 1 2s.5 2 1 2c.6 0 1 .9 1 2s.5 2 1 2c.6 0 1 2.8 1 6.5v6.5h-5c-2.7 0-5 .4-5 1 0 .5-.9 1-2 1-1.3 0-2-.7-2-2 0-1.1-.4-2-1-2-.5 0-1-1.1-1-2.5 0-1.7-1.7-4.3-5.5-8-5.2-5.2-5.7-5.5-10.5-5.5-4.9 0-5.3.2-11 6-3.2 3.3-6.1 6-6.4 6-.4 0-.6-.7-.6-1.6 0-1.9-2.4-4.4-4.2-4.4-.8 0-2-.9-2.8-2-.8-1.1-2.2-2-3.2-2s-1.8-.5-1.8-1c0-.6-1.3-1-3-1-1.6 0-3-.5-3-1 0-.6-1.3-1-3-1-2 0-3 .5-3 1.5s1 1.5 3 1.5c1.7 0 3 .4 3 1 0 .5 1.4 1 3 1 1.7 0 3 .4 3 1 0 .5.8 1 1.8 1s2.4.9 3.2 2c.8 1.1 2.2 2 3.2 2s1.8.7 1.8 1.6c0 2 2.4 4.4 4.4 4.4.9 0 1.6-.7 1.6-1.5 0-.9 2-3.6 4.5-6 4.1-4.1 4.8-4.5 9.5-4.5s5.4.4 9.5 4.5c3 2.9 4.5 5.3 4.5 7 0 1.4.5 2.5 1 2.5.6 0 1 1.6 1 3.5s-.4 3.5-1 3.5c-.5 0-1 .7-1 1.5 0 2.1 1.3 1.9 3-.5.8-1.1 2.2-2 3.2-2s1.8-.5 1.8-1c0-.6 2.3-1 5-1h5v8c0 4.7-.4 8-1 8-.5 0-1 2.1-1 4.7v4.8l-36-.3c-31.7-.2-36-.1-36 1.3 0 1.3 17.3 1.5 160 1.5 140.5 0 160-.2 160-1.5s-4.8-1.5-35.5-1.4c-30.1 0-35.8-.2-37-1.5-1.1-1.1-1.5-4-1.5-12.1 0-9.9.2-10.7 2.5-13 1.8-1.9 3.5-2.5 6.7-2.5 3.9 0 4.9.5 8.8 4.5 3.8 3.9 4.3 4.8 3.3 6.4-.7 1-.9 2.2-.6 2.5.8.8 3.3-1.4 3.3-2.9 0-.7.7-1.8 1.5-2.5.9-.7 2.5-3.2 3.5-5.4 3.6-7.6 10.4-13.6 14.5-12.8 1.9.3 2.3.8 1.6 1.5-.6.6-1.1 2.1-1.1 3.3 0 1.3-.4 2.6-1 2.9-.5.3-1 1.7-1 3s.5 2.7 1 3c.6.3 1-.5 1-1.9s.5-2.8 1-3.1c.6-.3 1-1.6 1.1-2.8 0-1.2.8-3.3 1.7-4.7.9-1.4 2.6-4 3.7-5.8 1.1-1.7 2.6-3.2 3.3-3.2.6 0 1.2-.4 1.2-.8 0-1.2 7.8-5.2 10-5.2 1.1 0 2.2-.5 2.5-1 .3-.6 1.7-1 3.1-1 1.5 0 2.4-.6 2.4-1.5 0-1.7-4.5-2.1-5.5-.5-.3.5-1.5 1-2.6 1-2 0-5.2 1.5-8.2 3.9-.9.8-2.7 1.9-3.9 2.5-1.2.6-2.9 2.4-3.8 4.1-1.4 2.5-2.3 3-6.1 3.3-3.8.3-5.2 1.1-9.7 5.5-2.9 2.9-6.2 7.1-7.3 9.4-1 2.3-2.3 4.4-2.7 4.7-.5.3-3.1-1.7-5.7-4.4-4.3-4.4-5.4-5-9.1-5-2.8 0-4.6.6-5.9 2-1 1.1-2.1 2-2.4 2-.3 0-.6-3.3-.6-7.2 0-5.6.4-7.6 1.6-8.5 1-.7 3.8-5.4 6.3-10.5 4.1-8.3 4.6-10.1 4.6-16 0-3.7.5-7 1-7.3 1.4-.9 1.2-12.1-.2-14.8-2.3-3.9-4.1-5.7-5.9-5.7-.9 0-3.6-1-5.8-2.2-3.3-1.7-3.8-2.4-2.6-3 .8-.5 1.5-1.7 1.5-2.7 0-2.3 2.6-7.5 4.5-9.1.9-.8 1.5-3 1.5-5.6 0-2.3.4-4.6 1-4.9 1.3-.8 1.3-11.2 0-12-.5-.3-1-1.9-1-3.4 0-7.3-14.4-25.1-20.2-25.1-1.5 0-2.8-.5-2.8-1 0-.6-3.3-1-8-1s-8 .4-8 1c0 .5-.9 1-2 1s-2 .4-2 1c0 .5-.9 1-2 1s-2 .4-2 1c0 .5-.7 1-1.5 1-2.6 0-10.5 8.6-10.5 11.5 0 1.4-.4 2.5-1 2.5s-1 5.2-1 13.5.4 13.5 1 13.5 1 1.8 1 4 .5 4 1 4c.6 0 1 .9 1 2s.5 2 1 2c.6 0 1 .9 1 2s.5 2 1 2c.6 0 1 .7 1 1.5s-.9 1.5-2 1.5-2 .4-2 1c0 .5-.9 1-2 1s-2 .4-2 1c0 .5-.7 1-1.6 1-2 0-4.4 2.4-4.4 4.4 0 .9-.4 1.6-1 1.6-.5 0-1 1.8-1 4s-.4 4-1 4c-.5 0-1 .8-1 1.8s-.9 2.4-2 3.2c-1.2.8-2 2.6-2 4.2 0 1.5-.4 2.8-1 2.8-.5 0-1 1.3-1 3 0 1.6-.4 3-1 3-.5 0-1-.9-1-2s-.4-2-1-2c-.5 0-1-.8-1-1.8s-.9-2.4-2-3.2c-1.1-.8-2-2.2-2-3.2s-.4-1.8-1-1.8c-.5 0-1-.7-1-1.5s.5-1.5 1-1.5c.6 0 1-3.7 1-9s.4-9 1-9c1.6 0 1.2-8-.5-9.6-1.3-1.4-1.7-1.4-3 0-.8.8-1.5 2.6-1.5 4s-.4 2.6-1 2.6c-.5 0-1 1.3-1 3 0 1.6-.4 3-1 3-.5 0-1-1.4-1-3 0-1.7-.4-3-1-3-.5 0-1-1.6-1-3.6 0-1.9-.7-4.2-1.5-5-2.5-2.5-4.5.5-4.5 6.6 0 4.5-.4 5.6-3 8-2.1 1.9-3 3.7-3 5.9 0 1.7.5 3.1 1 3.1.6 0 1 .7 1 1.6 0 .9 1.3 2.9 3 4.4 1.7 1.6 3 3.8 3 5.2 0 1.3.9 3 2 3.8 1.1.8 2 2.2 2 3.2s.5 1.8 1 1.8c.6 0 1 .8 1 1.8s.9 2.4 2 3.2c1.1.8 2 2 2 2.7 0 1.6 10.5 12.3 12 12.3s10-8.7 10-10.3c0-.7.9-1.9 2-2.7 1.1-.8 2-2.1 2-3 0-.9.9-2.2 2-3 1.2-.8 2-2.6 2-4.2 0-1.5.5-2.8 1-2.8.6 0 1 .8 1 1.8s.9 2.4 2 3.2c1.7 1.2 2 2.6 2 8.7 0 4.2-.4 7.3-1 7.3s-1 4-1 10c0 9.3-.1 10-2 10-1.1 0-2-.5-2-1 0-.6-.9-1-2-1s-2-.5-2-1c0-.6-2.7-1-6-1s-6 .4-6 1c0 .5-.9 1-2 1-1.3 0-2-.7-2-2 0-1.1-.4-2-1-2-.5 0-1-1.1-1-2.5 0-1.7-1.7-4.3-5.5-8-5.2-5.2-5.7-5.5-10.5-5.5-4.9 0-5.3.2-11 6-3.2 3.3-6.1 6-6.4 6-.4 0-.6-.7-.6-1.6 0-1.8-2.3-4.4-4-4.4-.6 0-2.2-1.1-3.6-2.5s-2-2.5-1.4-2.5c.5 0 1-1.4 1-3 0-1.7.5-3 1-3 .6 0 1-3.3 1-8s.4-8 1-8 1-3.2 1-7.5-.4-7.5-1-7.5c-.5 0-1-.7-1-1.5 0-.9-1.6-3.1-3.5-5-2.9-3-4.1-3.5-8-3.5-3.8 0-4.5-.3-4.5-2 0-1.1-.4-2-1-2-.5 0-1-.9-1-2s-.4-2-1-2c-2 0-.9-2.3 3-6 2.2-2.1 4-4.6 4-5.4 0-.9.5-1.6 1-1.6.6 0 1-1.3 1-2.8 0-1.6.8-3.4 2-4.2 1.7-1.2 2-2.6 2-9.2V140h3c1.7 0 3-.5 3-1 0-1.5-4.7-6-6.2-6-.8 0-2-.9-2.8-2-.8-1.1-2.1-2-2.8-2-.7 0-3.1-1.8-5.2-4-2.5-2.6-4.7-4-6.4-4-1.4 0-2.6-.5-2.6-1 0-.6-3.3-1-8-1s-8 .4-8 1zm140 3c0 .5 1.1 1 2.5 1 2.8 0 13.5 9.9 13.5 12.5 0 .8.5 1.5 1 1.5.6 0 1 .9 1 2s.5 2 1 2c.6 0 1 1.7.9 3.7 0 2.1-.3 3.2-.6 2.5-.7-1.7-3.3-1.5-3.3.2 0 .8.6 1.7 1.3 1.9.6.3-.9.6-3.5.6-2.7.1-4.8-.4-4.8-.9 0-.6-1.1-1-2.5-1-2.6 0-14.5-10.8-15.8-14.3-.8-2.1-2.7-2.3-2.7-.2 0 .8-3.4 4.9-7.5 9s-8.1 7.5-9 7.5c-.8 0-1.5.7-1.5 1.5s.5 1.5 1 1.5c.6 0 1 .8 1 1.7 0 1.4-.3 1.3-2.3-.5-2.7-2.6-3.7-2.8-3.7-.7 0 .8.5 1.5 1 1.5.6 0 1 2 1 4.5 0 4.4.3 4.9 8 12.5 4.4 4.4 8 8.5 8 9.2 0 .9-.3.9-1.2 0-1.8-1.8-6.2-1.4-7.7.7-1.3 1.8-1.7 1.5-4.8-4.7-1.8-3.6-3.3-7.8-3.3-9.3 0-1.5-.4-3.1-1-3.4-.6-.4-1-5.8-1-13s.4-12.6 1-13c.6-.3 1-1.6 1-2.9 0-3 4.5-7.1 12.2-11.1 5.3-2.8 7.4-3.3 13.6-3.4 4.2-.1 7.2.3 7.2.9zM91.1 135.8c4.6-.3 4.9-.1 4.9 2.1 0 1.8.4 2.2 2 1.8 1.3-.3 2 0 2 .9 0 .8.5 1.4 1 1.4.6 0 1 .9 1 2s.6 2 1.3 2.1c1 0 1 .2 0 .6-1.5.6-1.7 3.3-.3 3.3.6 0 1-.5 1-1 0-.6 1.8-1 4-1 2.9 0 4-.4 4-1.5 0-1-1-1.5-3-1.5-2.9 0-2.9-.1-1.3-1.9 1.5-1.9 1.7-1.9 2.9-.3 1.2 1.6 1.3 1.5 1.4-.4 0-3 1.1-3.6 2.6-1.6 1.7 2.2 1.9 18.5.2 21.2-1 1.5-1 2.2 0 3.2.9.9 1.2.7 1.2-1 0-1.2.5-2.2 1-2.2.6 0 1-.9 1-1.9 0-1.1.5-2.3 1-2.6 1.4-.9 1.2 3.6-.2 6.8-.7 1.5-1.9 2.7-2.6 2.7-.7 0-1.6.8-1.9 1.7-1.2 3.3-4.8 6.8-6.5 6.5-1.1-.2-1.8.3-1.8 1.1 0 1-.7 1.3-2 1-1.1-.3-2 0-2 .6s-1.7 1.1-4 1.1c-2.2 0-4-.5-4-1 0-.6-.9-1-2-1s-2-.5-2-1c0-.6-.7-1-1.5-1-2 0-6.5-4.5-6.5-6.5 0-.8-.7-1.5-1.6-1.5-.8 0-2.2-.6-3-1.4-1.6-1.7-1.9-7.2-.4-8.1.6-.4 1 .5 1 1.9s.5 2.6 1 2.6c.6 0 1 .9 1 2s.5 2 1 2c.6 0 1-1.1 1-2.5s-.4-2.5-1-2.5-1-3.8-1-9.5.4-9.5 1-9.5 1-.9 1-2 .5-2 1-2c.6 0 1-.8 1-1.8 0-2.5 1.4-3.8 1.8-1.7.3 1.4 1.3 1.6 5.3 1.3zm132.7 6.5c3.3 3.4 4 4.5 3 5.5s-.8 1.4 1 1.9c1.7.4 2 .9 1.2 1.8-.7.8-.7 1.5-.2 1.9.6.3 1.3-.2 1.7-1.2.6-1.6.7-1.6 1.6 0 1.2 2.1 3.5 2.4 4.2.5.3-.9.7-.9 2 .2 2 1.6 2.2 6.3.5 9.1-1 1.5-1 2.2 0 3.2.9.9 1.2.8 1.2-.5 0-1 .9-2.7 2-3.9 1.5-1.6 2-1.8 2-.7 0 2.5-2.4 6.9-3.8 6.9-.7 0-1.6 1-2.1 2.3-1.1 2.8-2.9 4.4-8.8 7.4-4.7 2.3-11.3 3.1-11.3 1.3 0-.6-.9-1-2-1s-2-.5-2-1c0-.6-.7-1-1.5-1-2 0-6.5-4.5-6.5-6.5 0-.8-.7-1.5-1.6-1.5-2.2 0-4.4-2.5-4.4-4.9 0-3.5 1.7-3.2 3.6.7 1.7 3.5 1.9 3.6 2.2 1.2.2-1.3-.1-2.6-.7-2.8-1.6-.5-1.3-8.1.3-9.8 2-1.9 5.3-2 3.7 0-.7.9-.8 1.7-.3 2 .6.3 1.3-.2 1.7-1.2.6-1.6.7-1.6 1.6 0 .6 1 1.7 1.8 2.4 1.8 1.8 0 2-2.6.3-3.3-.7-.3-.3-.6 1-.6 1.2-.1 2.2-.6 2.2-1.2 0-1.6-2.6-3.9-4.5-3.9-1.1 0-.6-1 1.7-3.4 1.8-1.9 3.5-3.5 3.8-3.5.3-.1 2.5 1.8 4.8 4.2zm-10.5 6.4c-.7.2-1.9.2-2.5 0-.7-.3-.2-.5 1.2-.5s1.9.2 1.3.5zm37.8 12.1c-.6.2-1.1 2.5-1.1 5.1 0 3.5-.5 5-2 6.1-1.1.8-2 2.2-2 3.2s-.4 1.8-1 1.8c-.5 0-1 1.3-1 3 0 2.3-.4 3-2 3-1.1 0-2 .4-2 1 0 .5-1.8 1-3.9 1-2.2 0-4.2.5-4.4 1.2-.3.7-.6-.2-.6-2-.1-2.8.9-4.3 6.9-10.2 3.9-3.8 7-7.6 7-8.5 0-.8.5-1.5 1-1.5.6 0 1-1.8 1-4s.5-4 1-4c.6 0 1-.7 1-1.5 0-.9.6-2.2 1.3-2.9 1-1.1 1.3-.4 1.5 3.7.2 3-.1 5.3-.7 5.5zm-5.7-6.1c-.5.5-1.2 1.2-1.6 1.8-.4.6-.8.2-.8-.8 0-.9.7-1.7 1.7-1.7.9 0 1.2.3.7.7zM156 179.4c0 1.9.5 3.8 1 4.1.6.3 1 1.7 1 3.1 0 1.3-.4 2.4-1 2.4-.5 0-1-.9-1-2s-.4-2-1-2c-.5 0-1-2-1-4.5s.5-4.5 1-4.5c.6 0 1 1.5 1 3.4zm-66 2.1c0 1.9-.4 3.5-1 3.5-2 0-1 6.1 1.5 8.5 1.8 1.9 3.5 2.5 7 2.5 2.5 0 4.5-.5 4.5-1 0-.6.7-1 1.6-1 .8 0 2.2-.6 3-1.4 1.6-1.7 1.9-5.6.4-5.6s-1.2-6 .4-7.6c2.5-2.4 4.6-1.7 4.6 1.6 0 1.6.5 3 1 3 .6 0 1 2 1 4.5s-.4 4.5-1 4.5c-.5 0-1 .7-1 1.6 0 .8-.6 2.2-1.4 3-1.6 1.6-8.6 1.9-8.6.4 0-.6-.9-1-2-1-1.8 0-2 .7-2 6.5 0 3.7.4 6.5 1 6.5s1 .7 1 1.6c0 1.5 2.3 4.4 3.4 4.4.3 0 .6-1.1.6-2.5s-.4-2.5-1-2.5c-.5 0-1-.9-1-2s-.4-2-1-2c-.5 0-1-1.6-1-3.5s.5-3.5 1-3.5c.6 0 1 .4 1 1 0 .5 2.1 1 4.6 1 4.7 0 7.4-1.6 7.4-4.4 0-.9.5-1.6 1-1.6.6 0 1-1.8 1-4v-4h4.5c3.5 0 5.2.6 7 2.5 1.4 1.3 2.5 3.1 2.5 4 0 .8.5 1.5 1 1.5.6 0 1 2.8 1 6.5s-.4 6.5-1 6.5-1 3.3-1 8-.4 8-1 8c-.5 0-1 1.3-1 3 0 1.6-.4 3-1 3-.5 0-1 .9-1 2s-.4 2-1 2c-.5 0-1 .9-1 2s-.4 2-1 2c-.5 0-1 .9-1 2s-.4 2-1 2-1 3-1 7v7h-17c-10.7 0-17-.4-17-1s-2.2-1-5-1h-5v-5c0-2.8-.4-5-1-5-.5 0-1-.9-1-2s-.4-2-1-2c-.5 0-1-.9-1-2s-.4-2-1-2c-.5 0-1-.9-1-2s-.4-2-1-2c-.5 0-1-1.4-1-3 0-1.7-.4-3-1-3s-1-3.3-1-8-.4-8-1-8-1-2.8-1-6.5.4-6.5 1-6.5 1-.9 1-2 .5-2 1-2c.6 0 1-.9 1-2 0-1.6.7-2 3-2 1.7 0 3-.5 3-1 0-.6 1.4-1 3-1 2.7 0 3 .3 3 3 0 1.6.5 3 1 3 .6 0 1 1.2 1 2.6 0 3.8 2.2 5.4 7.4 5.4 4.2 0 4.6.2 4.6 2.5 0 1.4-.4 2.5-1 2.5-.5 0-1 1.6-1 3.5s.5 3.5 1 3.5c.6 0 1-.9 1-2s.5-2 1-2c.6 0 1-2.8 1-6.5 0-5.8-.2-6.5-2-6.5-1.1 0-2 .4-2 1 0 1.5-4.9 1.2-6.6-.4-.8-.8-1.4-2.6-1.4-4s-.4-2.6-1-2.6c-.5 0-1-2.5-1-5.5 0-4.8.2-5.5 2-5.5 1.1 0 2-.5 2-1 0-.6.9-1 2-1 1.6 0 2 .7 2 3.5zm78-.1c0 1.9-.4 3.8-1 4.1-.5.3-1 2.8-1 5.5 0 4.3-.2 4.8-1.7 4.3-1-.4-2.4-1.3-3.1-2-1.1-1.1-1-1.3.7-1.3 1.8 0 2.1-.6 2.1-4 0-2.2.5-4 1-4 .6 0 1-1.4 1-3 0-1.7.5-3 1-3 .6 0 1 1.5 1 3.4zm-62.9 6.6c.5 0 .9.7.9 1.5s-.9 1.5-2 1.5-2 .4-2 1c0 1.6-8.9 1.2-10.6-.4-1.6-1.7-1.9-3.6-.4-3.6.6 0 1-1.8 1-4s.5-4 1-4c.6 0 1 .4 1 1 0 .5 1.8 1 3.9 1 2.7 0 4.1-.5 4.7-1.8.6-1.2.9-.4 1.2 3 .2 2.7.7 4.8 1.3 4.8zm113.4-7c.3.5 2.2 1 4.1 1 1.9 0 3.4-.5 3.4-1 0-.6.5-1 1-1 .6 0 1 1.3 1 2.8 0 3.8 2.7 9.2 4.6 9.2 2.5 0 1.2 3.2-2.1 5.1-3.3 1.9-14.5 2.6-14.5.9 0-.6-.7-1-1.5-1-.9 0-2.7-1.1-4.1-2.5-1.9-1.9-2.1-2.5-.9-2.5 2.9 0 6.5-4.6 6.5-8.5 0-3.4 1.2-4.6 2.5-2.5zm-7.7 3.7c-1 .2-2.6.2-3.5 0-1-.3-.2-.5 1.7-.5s2.7.2 1.8.5zm-56.8 5c0 2-.3 2.4-1.1 1.6-.7-.7-.9-1.9-.6-2.7 1-2.4 1.7-1.9 1.7 1.1zm56.6-1c-2.1.5-4.6 2.7-4.6 3.9 0 1 6.6 6.5 9.7 8.1 2.9 1.5 12.3 1.8 12.3.3 0-.6.7-1 1.5-1 1.7 0 7-4.8 7.1-6.5 0-.5-1.1-2-2.4-3.3l-2.5-2.2h6.6c4.8 0 7.6.6 10.2 2 2 1.1 4.3 2 5.3 2 1.9 0 4.5 5 4 7.7-.3 1.8-5.3 5.1-7.8 5.2-.8.1-2.1-.8-2.8-1.9-.7-1.2-1.7-1.8-2.3-1.4-.8.4-.7 1 0 1.7.6.6 1.1 2.9 1.1 5.2 0 3.3-.6 4.7-3.2 7.2-1.8 1.6-4.1 3.3-5.1 3.6-2.5.9-1.2 2.7 1.9 2.7 2.3 0 2.4.3 2.4 6.4 0 3.6.5 6.8 1 7.1.6.3 1 5.2 1 11.1V257h-17c-10.7 0-17-.4-17-1s-2.2-1-5-1h-5v-10.5c0-6.3.4-10.5 1-10.5s1-2.7 1-6c0-5.3.2-6 2-6 1.1 0 2-.7 2-1.5s-.9-1.5-2-1.5c-1.3 0-2-.7-2-1.8 0-1-.9-2.4-2-3.2-1.5-1.1-2-2.6-2-5.7 0-2.4.5-4.3 1-4.3.6 0 1-.7 1-1.5 0-2.1-1.3-1.9-3 .5-1.5 2.1-5 2.8-5 1 0-.6-.7-1-1.6-1-.8 0-2.2-.6-3-1.4-1.6-1.7-1.9-5.6-.4-5.6.6 0 1-.9 1-2 0-1.3.7-2 2-2 1.1 0 2-.5 2-1 0-.6.9-1 2-1s2-.5 2-1c0-.6 3.3-1 8.3-.9 4.5.1 7.3.4 6.3.6zm-56.6 5.8c2 2.1 2.1 2.5.6 2.5-.9 0-2.8-1.1-4.2-2.5-2.2-2.2-2.3-2.5-.6-2.5 1 0 2.9 1.1 4.2 2.5zm6.5.5c1.6 1.7 3.5 2.8 4.2 2.6 1.7-.7 1.8 4.5.2 6.1-.9.9-.8 2.1.5 4.7.9 1.9 2.1 3.8 2.6 4.1.5.3 1.7 2.3 2.6 4.3 1 2 2.4 4.5 3.2 5.4 1.2 1.5 1.6 1.5 2.8.3.8-.7 1.4-2.5 1.4-3.9s.5-2.6 1-2.6c.6 0 1-1.3 1-2.8 0-1.6.8-3.4 2-4.2 1.1-.8 2-2.2 2-3.2 0-2.4 1.7-2.3 7.3.6 4.6 2.3 4.6 2.3 2.7 4.1-1.1 1-2 2.8-2 4 0 1.2-.9 3-2 4s-2 2.3-2 3c0 .7-.9 2-2 3s-2 2.3-2 2.9c0 1.5-6.2 7.6-7.7 7.6-1.7 0-10.3-8.5-10.3-10.3 0-.7-.9-1.9-2-2.7-1.1-.8-2-2.2-2-3.2s-.4-1.8-1-1.8c-.5 0-1-.8-1-1.8s-.9-2.4-2-3.2c-1.1-.8-2-2.5-2-3.8 0-1.4-1.3-3.6-3-5.2-4.2-3.9-4.2-6.4 0-3.8 1.7 1.1 2.2 1 2.9-.1 1.1-1.8 2.9-.6 4.3 2.7 1.1 2.7 1.2 2.7 1.6.4.2-1.6-.6-3.1-2.7-5.1-3-2.8-4-5.1-2.3-5.1.5 0 2.1 1.4 3.7 3zm97.5 11.4c0 1.4-.4 2.8-1 3.1-.5.3-1 3.6-1 7.3 0 5.8-.5 7.8-4.2 15.4-2.4 4.8-4.6 8.8-5 8.8-.5 0-.8-1.4-.8-3 0-1.7-.4-3-1-3-.5 0-1-2-1-4.5s.5-4.5 1-4.5c.6 0 1-.9 1-2s.5-2 1-2c.6 0 1-3 1-7 0-6.3.2-7 2-7 1.1 0 2-.5 2-1 0-.6.9-1 2-1s2-.5 2-1c0-.6.5-1 1-1 .6 0 1 1.1 1 2.4zm-12 13.1c0 .8-.4 1.5-.8 1.5-.5 0-.9-.7-.9-1.5s.4-1.5.9-1.5c.4 0 .8.7.8 1.5zm-80.2 18.8c2.3 2.3 4.2 5.2 4.2 6.4 0 1.2.5 2.5 1 2.8 1.5.9 1.2 7.1-.5 8.5-.8.7-2.7 3.7-4.1 6.7-2 4.1-2.4 5.7-1.5 6.6.8.8 1.1.6 1.1-1.1 0-1.2.5-2.2 1-2.2.6 0 1-.9 1-2s.5-2 1-2c.6 0 1-.7 1-1.5 0-2 4.5-6.5 6.5-6.5.8 0 1.5-.5 1.5-1 0-1.9 10.3-1.1 15.2 1.2l4.8 2.3v31l-37.7-.2-37.8-.2-.3-21.6c-.1-14.1.1-21.5.8-21.5.5 0 1-.9 1-2s.5-2 1-2c.6 0 1-.9 1-2 0-1.3.7-2 1.8-2 1 0 2.4.9 3.2 2 .8 1.1 2.2 2 3.2 2s1.8.7 1.8 1.6c0 .8.6 2.2 1.4 3 1.9 1.9 4.6 1.8 4.6-.1 0-.9 1.9-3.5 4.3-6 3.9-4.1 4.5-4.4 9.7-4.4 5.3-.1 5.8.1 9.8 4.2zM82 259.5c0 1-1 1.5-3 1.5s-3-.5-3-1.5 1-1.5 3-1.5 3 .5 3 1.5zm4-.5c0 .5 1.8 1 4 1 2.9 0 4 .4 4 1.5s-1.2 1.5-5 1.5c-4.7 0-5-.2-5-2.5 0-1.4.5-2.5 1-2.5.6 0 1 .4 1 1zm124 0c0 .5 1.8 1 4 1 2.9 0 4 .4 4 1.5s-1.2 1.5-5 1.5c-2.7 0-5-.5-5-1 0-.6-1.8-1-4-1-2.9 0-4-.4-4-1.5s1.2-1.5 5-1.5c2.8 0 5 .4 5 1zm-108 2.5c0 .8-.9 1.5-2 1.5-1.7 0-1.9-.2-.8-1.5 1.7-1.9 2.8-1.9 2.8 0zm10 0c0 1.1-1.1 1.5-3.8 1.5-2.8 0-3.9-.4-3.9-1.5s1.1-1.5 3.9-1.5c2.7 0 3.8.4 3.8 1.5zm8 0c0 1-1 1.5-3 1.5s-3-.5-3-1.5 1-1.5 3-1.5 3 .5 3 1.5zm124 0c0 1.2-1.7 1.5-9 1.5-7.9 0-8.9-.2-7.8-1.5 1.9-2.1 16.8-2.1 16.8 0zM84 265c0 .5.9 1 2 1 1.5 0 2 .7 2 2.5s-.5 2.5-2 2.5c-1.1 0-2 .4-2 1 0 .5-1.8 1-4 1h-4v-9h4c2.2 0 4 .4 4 1zm124 0c0 .6 3 1 7 1h7v21h-21.9l.1-11.5V264h3.9c2.1 0 3.9.4 3.9 1zm-116 8.6c0 5.2.4 8 1.4 9 1.1 1.1 1.7 1.1 2.2.2.4-.6.2-1.4-.4-1.6-1.5-.5-1.7-15.2-.2-15.2.6 0 1 1.8 1 4s.5 4 1 4c.6 0 1 2 1 4.5s-.4 4.5-1 4.5c-.5 0-1 .9-1 2 0 1.9-.7 2-11 2H74v-4.1c0-5 1.8-6.9 6.4-6.9 2 0 3.6-.5 3.6-1 0-.6.7-1 1.6-1 2.3 0 4.4-2.5 4.4-5.4 0-1.4.5-2.6 1-2.6.6 0 1 3.2 1 7.6zm12-5.1c0 1.4 1.1 3.7 2.5 5.1 2.3 2.3 3.3 2.5 8 2.2l5.5-.3V287h-9c-5.3 0-9-.4-9-1s-.4-1-1-1c-.5 0-1 .7-1 1.6 0 .8-.5 1.2-1.1.9-.7-.5-.5-1.3.5-2.4 1.9-2.1 2.2-10.6.4-11.8-.7-.4-1.3-2.3-1.3-4.1 0-2.8.3-3.2 2.7-3.2 2.3 0 2.8.4 2.8 2.5zm16 1.2v3.8l-5.7-.4c-6-.3-8.3-1.7-8.3-5 0-1.9.6-2.1 7-2.1h7v3.7zm124 6.2c0 7 .4 10.1 1.3 10.4.6.3-3 .6-8 .6-5.6.1-9.3-.3-9.3-.9 0-.6-.4-1-1-1-.5 0-1 .7-1 1.6 0 .8-.5 1.2-1.1.9-.7-.5-.4-1.4.8-2.7 1.7-1.9 1.7-2 0-3.3-1.3-1-1.7-2.7-1.7-8.4V266h20v9.9z"/><path d="M216 128c0 .5-.9 1-2 1s-2 .4-2 1c0 .5-.7 1-1.5 1-2.3 0-12.5 10.6-12.5 13 0 3 1.1 2.5 7-3.5 3-3.1 7.7-6.7 10.4-8 5-2.5 12.6-3.4 12.6-1.5 0 .5.7 1 1.5 1 .9 0 3.1 1.6 5 3.5s3.5 4.1 3.5 5c0 .8.5 1.5 1 1.5.6 0 1 .9 1 2s.7 2 1.5 2c1 0 1.5-1.1 1.5-3.5 0-1.9-.4-3.5-1-3.5-.5 0-1-.7-1-1.5 0-.9-1.6-3.1-3.5-5s-4.1-3.5-5-3.5c-.8 0-1.5-.5-1.5-1 0-.6-3.2-1-7.5-1s-7.5.4-7.5 1zM84 146.5c0 1.1 1.1 1.5 4 1.5 2.2 0 4 .4 4 1 0 .5.5 1 1 1 1.5 0 1.2-1.9-.4-3.6-2-1.9-8.6-1.9-8.6.1z"/><path d="M85.2 150.6c-.7.8-1 1.9-.7 2.5.4.6 1.2.3 2.1-.8 1.2-1.7 1.3-1.7 1.4-.1 0 1.1.8 1.8 2 1.8 2.3 0 2.6-1.6.6-3.6-1.8-1.8-3.7-1.7-5.4.2zM105.2 150.6c-.7.8-1 1.9-.7 2.5.4.6 1.2.3 2.1-.8 1.2-1.7 1.3-1.7 1.4-.1 0 1.1.8 1.8 2 1.8 2.3 0 2.6-1.6.6-3.6-1.8-1.8-3.7-1.7-5.4.2zM86 158.5c0 2.8.4 3.5 2 3.5 2.4 0 2.7-3.4.6-5.6-2.2-2.1-2.6-1.8-2.6 2.1zM106 158.5c0 2.8.4 3.5 2 3.5 2.4 0 2.7-3.4.6-5.6-2.2-2.1-2.6-1.8-2.6 2.1zM95.3 164.5c-1.3 1.5-1.7 3.5-.7 3.5s3.4-2.8 3.4-3.9c0-1.5-1.2-1.3-2.7.4zM92 172.1c0 2.1 2.9 3.9 6.4 3.9 2.5 0 3.6-.4 3.6-1.5s-1.1-1.5-4-1.5c-2.2 0-4-.5-4-1 0-.6-.4-1-1-1-.5 0-1 .5-1 1.1zM210.4 156.4c-1 2.6 0 5.1 2.1 5.1 2.3 0 2.2-2.9-.1-5.2-1.2-1.3-1.5-1.2-2 .1zM230.4 156.4c-.9 2.4 0 5.1 1.9 5.4 2.7.5 3.3-2.6.8-4.9-1.8-1.7-2.2-1.8-2.7-.5zM219.7 164.8c-.9 1-1.4 2.1-1.1 2.5.9.8 3.6-2.1 3.2-3.4-.2-.6-1.1-.2-2.1.9zM216.3 170.5c-.9 2.5 2.6 5.5 6.4 5.5 2.3 0 3.3-.4 3-1.3-.2-.6-1.9-1.2-3.8-1.3-4.6 0-4.3-1.7.4-1.8 2.3-.1 3.7.4 3.7 1.1 0 .7.5 1.3 1 1.3.6 0 1-1.1 1-2.5 0-2.4-.3-2.5-5.5-2.5-4.1 0-5.7.4-6.2 1.5zM120 212c0 5.3-.4 9-1 9s-1 2.8-1 6.5.4 6.5 1 6.5 1-2.7 1-6 .4-6 1-6 1-3.8 1-9.5-.4-9.5-1-9.5-1 3.7-1 9zM74 214.5c0 5.7.4 9.5 1 9.5s1 3.3 1 8 .4 8 1 8 1-3.5 1-8.5-.4-8.5-1-8.5-1-3.7-1-9-.4-9-1-9-1 3.8-1 9.5zM83.3 230.5c-.7.8-1.3 3-1.3 5 0 1.9-.4 3.5-1 3.5-1.5 0-1.2 8 .4 9.6 2.1 2 31.1 2 33.2 0 1.6-1.6 1.9-9.6.4-9.6-.5 0-1-1.6-1-3.6 0-5.9-1.2-6.4-16.2-6.4-10.2.1-13.6.4-14.5 1.5zM112 236c0 2.2.5 4 1 4 .6 0 1 1.6 1 3.5v3.5H82v-3.5c0-1.9.5-3.5 1-3.5.6 0 1-1.8 1-4v-4h28v4zM224.4 218.4c-.7 1.9.3 3.6 2.1 3.6 2.3 0 2.5-1.5.4-3.3-1.7-1.5-2-1.5-2.5-.3zM217.2 269c0 1.4.2 1.9.5 1.2.2-.6.2-1.8 0-2.5-.3-.6-.5-.1-.5 1.3zM212.3 272.7c.9.2 2.3.2 3 0 .6-.3-.1-.5-1.8-.5-1.6 0-2.2.2-1.2.5zM203.8 274.7c1.2.2 3.2.2 4.5 0 1.2-.2.2-.4-2.3-.4s-3.5.2-2.2.4zM227.3 275.5c0 3.3.2 4.5.4 2.7.2-1.8.2-4.5 0-6s-.4 0-.4 3.3zM235.3 272.7c1.5.2 3.9.2 5.5 0 1.5-.2.2-.4-2.8-.4s-4.3.2-2.7.4zM54 269.4c0 1.4.5 2.6 1 2.6.6 0 1-.9 1-1.9 0-1.1-.4-2.3-1-2.6-.6-.4-1 .5-1 1.9zM52 273.4c0 1.4.5 2.6 1 2.6.6 0 1-.9 1-1.9 0-1.1-.4-2.3-1-2.6-.6-.4-1 .5-1 1.9zM50 277.4c0 1.4.5 2.6 1 2.6.6 0 1-.9 1-1.9 0-1.1-.4-2.3-1-2.6-.6-.4-1 .5-1 1.9zM52 292.6c0 1.1.8 1.4 2.7 1.2 3.9-.4 4.2-2.8.4-2.8-2.1 0-3.1.5-3.1 1.6zM66.5 292c-.3.6 0 1.3.8 1.6 2.4.9 8 0 8.5-1.4.5-1.5-8.4-1.7-9.3-.2zM83.7 292.8c-2.3 2.6-2.2 9.4.1 11.5 2.2 2 8.6 2.3 8 .4-.3-.6-2.1-1.3-4.1-1.5l-3.6-.3 3.4-3.5c1.9-1.9 3.7-3.4 4-3.4.3 0 .5 1.8.5 4s.5 4 1 4c1.6 0 1.2-9.9-.4-11.6-2-2-7-1.8-8.9.4zm6.3 1c0 1.2-3.9 5.2-5 5.2-.6 0-1-1.1-1-2.4 0-1.9.6-2.6 2.8-2.9 1.5-.2 2.8-.5 3-.6.1 0 .2.3.2.7zM98.5 292c-.3.5-.1 1 .4 1 .7 0 1.1 2.4 1.1 5.9 0 3.3.5 6.3 1 6.6.6.4 1-2.2 1-6.9 0-6-.3-7.6-1.4-7.6-.8 0-1.8.4-2.1 1zM106.5 292c-.9 1.4 1.9 2.3 6 1.8 4.2-.5 4.4.4 1.3 6.1-1.7 3.2-1.9 4.4-1 5.3.9.9 1.2.7 1.2-1 0-1.2.5-2.2 1-2.2.6 0 1-.9 1-2s.5-2 1-2c.6 0 1-1.6 1-3.5V291h-5.4c-3 0-5.8.5-6.1 1zM133.9 292.8c-2.4 3-3.9 6.1-3.9 8.1 0 1.1-.5 2.3-1 2.6-.6.4-.8 1.1-.4 1.6.3.6 1.4.1 2.3-1 2.7-3.1 6.1-3.2 8.8-.2 1.8 2.1 2.2 2.3 2.3.8 0-.9-.4-1.7-1-1.7-.5 0-1-1.4-1-3 0-1.7-.4-3-1-3-.5 0-1-.7-1-1.6 0-.8-.6-2.2-1.4-2.9-1.2-1.2-1.6-1.2-2.7.3zm2.5 2.9c.3 1 .9 2.3 1.2 3 .3.7-.2 1-1.3.8-1-.2-2.5-.4-3.3-.5-1-.1-1.1-.3-.2-.7.6-.2 1.2-1.3 1.2-2.4 0-2.4 1.6-2.5 2.4-.2zM166.5 291.9c-.3.5-.1 1.2.5 1.6.5.3 1-.1 1-.9 0-1.8-.6-2.1-1.5-.7zM172.4 292.4c-.3.7-.4 4-.2 7.2.3 5.6.4 5.9 3.1 6.2 3.1.4 3.8-1.7.7-2.5-1.6-.4-2-1.4-2-4.8s.4-4.4 2-4.8c1.1-.3 2-1 2-1.6 0-1.6-5-1.4-5.6.3zM214.5 291.9c-.7 1.2 1.2 2.4 2.5 1.6.6-.4 1 1.6 1 5.4 0 3.3.5 6.3 1 6.6.6.4 1-1.7 1-5.4 0-5.4.2-6.1 2-6.1 1.1 0 2-.7 2-1.5 0-1.1-1.2-1.5-4.4-1.5-2.5 0-4.7.4-5.1.9zM50 294.4c0 .9.5 1.6 1 1.6.6 0 1 1.1 1 2.5s-.4 2.5-1 2.5c-.5 0-1 .7-1 1.6 0 1.2.3 1.4 1.3.6.6-.5 2.3-1.2 3.6-1.4 3.2-.4 3.8-2.5.9-3.1l-2.3-.4 2.3-.2c3.1-.1 2.3-2.5-.9-2.9-1.3-.2-3-.9-3.6-1.4-1-.8-1.3-.6-1.3.6z"/><path d="M58 294.5c0 .8.5 1.5 1 1.5.6 0 1 1.1 1 2.5s-.4 2.5-1 2.5c-.5 0-1 .7-1 1.5 0 1.9.7 1.9 2.6.1.8-.8 1.4-2.6 1.4-4.1 0-1.5-.6-3.3-1.4-4.1-1.9-1.8-2.6-1.8-2.6.1zM76 295.5c0 1.4.5 2.5 1 2.5.6 0 1-1.1 1-2.5s-.4-2.5-1-2.5c-.5 0-1 1.1-1 2.5zM178 293.9c0 .6.5 1.3 1 1.6 1.4.8 1.3 4.8-.2 6.3-.6.6-.9 1.5-.5 1.8 1.1 1.1 3.7-2.4 3.7-5.1 0-1.5-.6-3.3-1.4-4.1-1.7-1.6-2.6-1.8-2.6-.5zM48 298.5c0 2.2.4 3.4 1 3 .6-.3 1-1.7 1-3s-.4-2.7-1-3c-.6-.4-1 .8-1 3zM145.7 296.8c-2.2 2.4-2.1 5.5.1 7.5 2.4 2.2 6.2 2.2 6.2.2 0-.9-.6-1.5-1.2-1.4-.7.1-2.2.1-3.3-.1l-2-.1 2-.8c1.1-.5 2.6-.6 3.3-.4.8.3 1.2-.4 1.2-2.1 0-1.4-.4-2.6-1-2.6-.5 0-1 .6-1 1.4 0 1-.7 1.2-2.2.8l-2.2-.5 2.2-.8c1.2-.5 2.2-1.3 2.2-1.9 0-1.6-2.5-1.2-4.3.8zM154.5 295.9c-.3.5-.1 1.2.5 1.6.5.3 1 1.6 1 2.7 0 1.2.7 2.9 1.6 3.9 1.4 1.5 1.8 1.6 3 .4.8-.7 1.4-2.5 1.4-3.9s.5-2.6 1-2.6c.6 0 1-.7 1-1.7 0-1.4-.2-1.4-2 .2-1.1 1-2 2.9-2 4.2 0 1.2-.4 2.3-1 2.3-.5 0-1-1.2-1-2.6 0-2.8-2.5-6-3.5-4.5zM166.7 295.7c-1.1 1-.8 9.1.3 9.8.6.4 1-1.5 1-4.9 0-5.7-.1-6.1-1.3-4.9zM187.7 296.8c-2.2 2.4-2.1 5.5.1 7.5 2.4 2.2 6.2 2.2 6.2.2 0-.9-.6-1.5-1.2-1.4-.7.1-2.2.1-3.3-.1l-2-.1 2-.8c1.1-.5 2.6-.6 3.3-.4.8.3 1.2-.4 1.2-2.1 0-1.4-.4-2.6-1-2.6-.5 0-1 .6-1 1.4 0 1-.7 1.2-2.2.8l-2.2-.5 2.2-.8c1.2-.5 2.2-1.3 2.2-1.9 0-1.6-2.5-1.2-4.3.8zM196.5 295.9c-.3.5-.1 1.2.5 1.6.5.3 1 1.6 1 2.7 0 1.2.7 2.9 1.6 3.9 1.4 1.5 1.8 1.6 3 .4.8-.7 1.4-2.5 1.4-3.9s.5-2.6 1-2.6c.6 0 1-.7 1-1.7 0-1.4-.2-1.4-2 .2-1.1 1-2 2.9-2 4.2 0 1.2-.4 2.3-1 2.3-.5 0-1-1.2-1-2.6 0-2.8-2.5-6-3.5-4.5zM229.7 296.8c-3.4 3.8-.5 9.7 4.5 9 2.3-.3 2.8-2.2.5-2.4-.6-.1-2.1-.3-3.2-.4l-2-.1 2-.8c1.1-.5 2.6-.6 3.3-.4.8.3 1.2-.4 1.2-2.1 0-1.4-.4-2.6-1-2.6-.5 0-1 .6-1 1.4 0 1-.7 1.2-2.2.8l-2.2-.5 2.2-.8c1.2-.5 2.2-1.3 2.2-1.9 0-1.6-2.5-1.2-4.3.8zM242.5 295.9c-.7 1.2 1.2 2.4 2.5 1.6.6-.3 1 .1 1 .9 0 .9-.6 1.3-1.3 1-1.8-.7-5.1 3.2-4.4 5.1.4.9 1.9 1.5 4.2 1.5h3.5v-5.5c0-5.2-.1-5.5-2.4-5.5-1.4 0-2.7.4-3.1.9zm3.5 6.5c0 1-.7 1.2-2.2.8-2.1-.5-2.1-.6-.2-1.3 1-.4 2-.8 2.2-.8.1-.1.2.5.2 1.3zM252.4 296.4c-.8 2.2 0 9.1 1.1 9.1.5 0 .9-1.6.7-3.6-.3-2.9.1-3.7 1.7-4.2 1.7-.4 2 .1 2.3 3.7.2 2.2.7 4 1.3 3.8.5-.1.8-1.7.7-3.6-.3-2.6.1-3.4 1.7-3.9 1.7-.4 2 .1 2.3 3.7.2 2.2.7 4 1.2 3.8 1.4-.3 1.1-6.9-.4-8.6-1.7-2.1-11.8-2.2-12.6-.2zM67.7 299c-1 1.2-1.7 3.1-1.5 4.3.3 1.9 1 2.2 6.1 2.5 4.6.2 5.7 0 5.7-1.3 0-1.1-1.2-1.5-5-1.5s-5-.4-5-1.5 1.1-1.5 4.1-1.5c2.8 0 3.9-.4 3.7-1.3-.8-2.2-6.1-2-8.1.3zM52 304.4c0 1.1 1 1.6 3.1 1.6 3.8 0 3.5-2.4-.4-2.8-1.9-.2-2.7.1-2.7 1.2z"/></svg>