<svg xmlns="http://www.w3.org/2000/svg" width="636.862" height="323.021" viewBox="0 0 168.503 85.466"><g transform="translate(-6.998 -95.859)"><path d="M149.042 129.9c-8.242-1.625-21.35-1.42-31.914-1.51-21.5-.183-59.043 2.399-60.358 1.173-4.91-7.72-16.975-28.082-19.149-29.036-2.279-.971-10.537-1.02-13.779-1.094-2.502-.057 8.137 42.337 10.48 42.66 2.514.346 4.732.856 6.792 1.182 2.52.398-9.734 11.544-8.202 11.86 5.87 1.215 4.756 2.5 10.995 1.938 3.27-.295 9.968-10.687 12.754-10.805 3.047-.128 21.428 2.817 29.737 2.173 5.28-2.104 13.554-3.12 13.554-3.12s-10.385 1.65-12.74 3.698c-3.476 1.353-29.369 28.47-30.49 29.738-2.3 2.604 11.449 2.094 14.597 1.773 6.42-.655 40.402-29.458 46.305-31.128 3.287-.93 31.029.59 45.286-1.772 2.78-.461 8.629-1.483 10.501-2.58 1.277-.747 2.194-2.066 1.17-3.136-3.912-4.09-10.854-2.863-13.003-4.804-2.899-4.515-7.784-6.297-12.536-7.21z" style="fill:#fff;fill-opacity:1;stroke:#000;stroke-width:.264583px;stroke-linecap:butt;stroke-linejoin:miter;stroke-opacity:1"/><path d="M108.785 124.634c4.503-.47-20.8-28.224-24.079-28.59-4.152-.463-9.419.56-9.539 1.54-.243 1.985 12.807 28.554 14.71 28.528 3.157-.042 14.61-1.029 18.908-1.478z" style="fill:#fff;fill-opacity:1;stroke:#000;stroke-width:.264583px;stroke-linecap:butt;stroke-linejoin:miter;stroke-opacity:1"/><circle cx="91.201" cy="136.044" r="1.972" style="fill:#000;fill-opacity:1;stroke-width:.216267"/><circle cx="83.461" cy="136.177" r="1.972" style="fill:#000;fill-opacity:1;stroke-width:.216267"/><circle cx="75.408" cy="136.258" r="1.972" style="fill:#000;fill-opacity:1;stroke-width:.216267"/><circle cx="108.574" cy="136.059" r="1.972" style="fill:#000;fill-opacity:1;stroke-width:.216267"/><circle cx="116.264" cy="136.166" r="1.972" style="fill:#000;fill-opacity:1;stroke-width:.216267"/></g></svg>