<?xml version="1.0" encoding="UTF-8" standalone="no"?>
<svg
   xmlns:dc="http://purl.org/dc/elements/1.1/"
   xmlns:cc="http://creativecommons.org/ns#"
   xmlns:rdf="http://www.w3.org/1999/02/22-rdf-syntax-ns#"
   xmlns:svg="http://www.w3.org/2000/svg"
   xmlns="http://www.w3.org/2000/svg"
   xmlns:xlink="http://www.w3.org/1999/xlink"
   xmlns:sodipodi="http://sodipodi.sourceforge.net/DTD/sodipodi-0.dtd"
   xmlns:inkscape="http://www.inkscape.org/namespaces/inkscape"
   width="168.50299mm"
   height="85.465942mm"
   viewBox="0 0 168.503 85.465943"
   version="1.1"
   id="svg8"
   sodipodi:docname="plane.svg"
   inkscape:version="1.0.1 (3bc2e813f5, 2020-09-07)">
  <defs
     id="defs2">
    <linearGradient
       inkscape:collect="always"
       id="linearGradient949">
      <stop
         style="stop-color:#9dc9ef;stop-opacity:0"
         offset="0"
         id="stop945" />
      <stop
         style="stop-color:#9dc9ef;stop-opacity:1"
         offset="1"
         id="stop947" />
    </linearGradient>
    <linearGradient
       inkscape:collect="always"
       xlink:href="#linearGradient949"
       id="linearGradient951"
       x1="-16.469917"
       y1="42.799854"
       x2="8.7276697"
       y2="42.731625"
       gradientUnits="userSpaceOnUse" />
  </defs>
  <sodipodi:namedview
     id="base"
     pagecolor="#ffffff"
     bordercolor="#666666"
     borderopacity="1.0"
     inkscape:pageopacity="0.0"
     inkscape:pageshadow="2"
     inkscape:zoom="1.4"
     inkscape:cx="478.81515"
     inkscape:cy="155.48064"
     inkscape:document-units="mm"
     inkscape:current-layer="layer2"
     inkscape:document-rotation="0"
     showgrid="false"
     inkscape:window-width="1916"
     inkscape:window-height="1040"
     inkscape:window-x="0"
     inkscape:window-y="18"
     inkscape:window-maximized="0" />
  <metadata
     id="metadata5">
    <rdf:RDF>
      <cc:Work
         rdf:about="">
        <dc:format>image/svg+xml</dc:format>
        <dc:type
           rdf:resource="http://purl.org/dc/dcmitype/StillImage" />
        <dc:title></dc:title>
      </cc:Work>
    </rdf:RDF>
  </metadata>
  <g
     inkscape:groupmode="layer"
     id="layer2"
     inkscape:label="BG"
     transform="translate(16.333196,-0.06150418)">
    <path
       style="fill:url(#linearGradient951);fill-opacity:1;stroke:none;stroke-width:0.264583px;stroke-linecap:butt;stroke-linejoin:miter;stroke-opacity:1"
       d="M 24.114651,43.411653 -15.225575,85.2597 -16.333196,0.34948495 Z"
       id="path935" />
    <path
       style="fill:#9dc9ef;fill-opacity:1;stroke:none;stroke-width:0.264583px;stroke-linecap:butt;stroke-linejoin:miter;stroke-opacity:1"
       d="M -16.333196,0.34948495 152.02049,0.06150418 152.1698,85.527448 -15.225575,85.2597 24.114651,43.411653 Z"
       id="path953" />
  </g>
  <g
     inkscape:label="Layer 1"
     inkscape:groupmode="layer"
     id="layer1"
     transform="translate(-6.998312,-95.858546)">
    <path
       style="fill:#ffffff;fill-opacity:1;stroke:#000000;stroke-width:0.264583px;stroke-linecap:butt;stroke-linejoin:miter;stroke-opacity:1"
       d="m 149.04248,129.89938 c -8.24256,-1.62488 -21.35052,-1.41855 -31.914,-1.50861 -21.500639,-0.18331 -59.043829,2.39813 -60.358958,1.17259 C 51.860283,121.84212 39.794881,101.48106 37.621284,100.52668 35.342219,99.555595 27.083562,99.506712 23.8425,99.4329 c -2.502359,-0.05699 8.13606,42.33755 10.480247,42.66005 2.513088,0.34574 4.731114,0.85586 6.791448,1.18183 2.519085,0.39854 -9.734183,11.54378 -8.202127,11.86069 5.870866,1.21443 4.755726,2.50022 10.994802,1.93748 3.269985,-0.29494 9.967745,-10.68677 12.754569,-10.8045 3.04669,-0.1287 21.427546,2.81678 29.736615,2.17275 5.279321,-2.1038 13.553859,-3.1204 13.553859,-3.1204 0,0 -10.38508,1.64991 -12.739504,3.69852 -3.476618,1.35251 -29.369459,28.47012 -30.489574,29.73807 -2.300028,2.6036 11.448083,2.09409 14.595786,1.77281 6.41983,-0.65525 40.402439,-29.45828 46.305769,-31.1281 3.28637,-0.92958 31.02847,0.59057 45.28559,-1.77247 2.77974,-0.46073 8.6288,-1.48228 10.5011,-2.57873 1.27707,-0.74787 2.19367,-2.06699 1.17076,-3.13652 -3.91251,-4.09081 -10.85506,-2.86306 -13.00403,-4.80441 -2.89835,-4.51451 -7.7835,-6.29747 -12.53533,-7.21059 z"
       id="path10"
       sodipodi:nodetypes="csccsssssscccsssssscc" />
    <path
       style="fill:#ffffff;fill-opacity:1;stroke:#000000;stroke-width:0.264583px;stroke-linecap:butt;stroke-linejoin:miter;stroke-opacity:1"
       d="m 108.78522,124.63405 c 4.50309,-0.47048 -20.800117,-28.223667 -24.078908,-28.589563 -4.151932,-0.463334 -9.418831,0.55964 -9.538968,1.539583 -0.243285,1.984442 12.807035,28.55382 14.709318,28.52818 3.157361,-0.0426 14.610918,-1.02918 18.908558,-1.4782 z"
       id="path12"
       sodipodi:nodetypes="sssss" />
    <circle
       style="fill:#000000;fill-opacity:1;stroke-width:0.216267"
       id="path851"
       cx="91.201126"
       cy="136.04449"
       r="1.9724019" />
    <circle
       style="fill:#000000;fill-opacity:1;stroke-width:0.216267"
       id="path851-3"
       cx="83.460571"
       cy="136.17709"
       r="1.9724019" />
    <circle
       style="fill:#000000;fill-opacity:1;stroke-width:0.216267"
       id="path851-6"
       cx="75.407646"
       cy="136.25804"
       r="1.9724019" />
    <circle
       style="fill:#000000;fill-opacity:1;stroke-width:0.216267"
       id="path851-7"
       cx="108.57366"
       cy="136.05937"
       r="1.9724019" />
    <circle
       style="fill:#000000;fill-opacity:1;stroke-width:0.216267"
       id="path851-5"
       cx="116.26435"
       cy="136.16592"
       r="1.9724019" />
  </g>
</svg>
